<svg width="94" height="38" viewBox="0 0 94 38" fill="none" xmlns="http://www.w3.org/2000/svg">
<path d="M93.911 2.71166H78.2791L79.2362 0.0398865H93.911V2.71166Z" fill="black"/>
<path d="M52.2393 0.0398865H66.7546L67.7117 2.71166H52.2393V0.0398865Z" fill="black"/>
<path d="M40.7148 0C43.1074 0.239264 45.181 1.07669 46.9356 2.67179H20.6166V0H40.7148Z" fill="black"/>
<path d="M18.2638 0H0V2.67179H18.2638V0Z" fill="black"/>
<path d="M93.911 7.7362H76.4847L77.4417 5.06442H93.911V7.7362Z" fill="black"/>
<path d="M69.5062 7.7362H52.2393V5.06442H68.5491L69.5062 7.7362Z" fill="black"/>
<path d="M49.0092 5.06442C49.3681 5.94172 49.7669 6.69939 49.7669 7.7362H20.6565V5.06442H49.0092Z" fill="black"/>
<path d="M18.2638 5.06442H0V7.7362H18.2638V5.06442Z" fill="black"/>
<path d="M74.6902 12.7607L75.6472 10.089H88.727V12.7607H74.6902Z" fill="black"/>
<path d="M70.3436 10.089L71.3006 12.7607H57.3835V10.089H70.3436Z" fill="black"/>
<path d="M50.0062 10.089C50.0062 11.0061 49.8865 11.9632 49.6074 12.7607H41.6319V10.089H50.0062Z" fill="black"/>
<path d="M12.9601 10.089H5.10431V12.7607H12.9601V10.089Z" fill="black"/>
<path d="M33.7761 10.089H25.9203V12.7607H33.7761V10.089Z" fill="black"/>
<path d="M65.1196 15.6319V17.6656H57.3835V14.9939H72.0982L73.0154 17.4663L73.8927 14.9939H88.727V17.6656H81.0307V15.6319L80.3129 17.6656H65.7976L65.1196 15.6319Z" fill="black"/>
<path d="M25.9203 14.9939H48.411C47.9325 15.8712 47.0153 16.9877 46.1779 17.6656H25.9203V14.9939Z" fill="black"/>
<path d="M12.9601 14.9939H5.10431V17.6656H12.9601V14.9939Z" fill="black"/>
<path d="M88.727 20.0184H81.0307V22.6902H88.727V20.0184Z" fill="black"/>
<path d="M65.1196 20.0184H57.3835V22.6902H65.1196V20.0184Z" fill="black"/>
<path d="M79.4754 20.0184C79.4356 20.0184 78.5583 22.6902 78.5184 22.6902H67.592L66.635 20.0184H79.4754Z" fill="black"/>
<path d="M25.9203 20.0184H46.1381C47.0552 20.7761 47.8927 21.7331 48.5706 22.6902H25.9203V20.0184Z" fill="black"/>
<path d="M12.9601 20.0184H5.10431V22.6902H12.9601V20.0184Z" fill="black"/>
<path d="M88.727 25.0429H81.0307V27.7148H88.727V25.0429Z" fill="black"/>
<path d="M65.1196 25.0429H57.3835V27.7148H65.1196V25.0429Z" fill="black"/>
<path d="M76.7638 27.7148L77.7209 25.0429H68.4295L69.3865 27.7148H76.7638Z" fill="black"/>
<path d="M25.9203 27.7148V25.0429H33.8957V27.7148H25.9203Z" fill="black"/>
<path d="M49.6871 25.0429C50.0859 25.8405 50.1258 26.7976 50.2055 27.7148H41.7914V25.0429H49.6871Z" fill="black"/>
<path d="M12.9601 25.0429H5.10431V27.7148H12.9601V25.0429Z" fill="black"/>
<path d="M93.9111 29.9479H81.0307V32.6196H93.9111V29.9479Z" fill="black"/>
<path d="M65.1197 29.9479H52.2393V32.6196H65.1197V29.9479Z" fill="black"/>
<path d="M75.0092 32.6196H71.1012L70.1442 29.9479H75.9264L75.0092 32.6196Z" fill="black"/>
<path d="M0 29.9479V32.6196H18.2638V29.9479H0Z" fill="black"/>
<path d="M49.8865 29.9479C49.6871 30.8252 49.5276 31.9018 48.8896 32.6196H48.6503H20.6565V29.9479H49.8865Z" fill="black"/>
<path d="M73.2546 37.6442H72.8957L71.9785 34.9724H74.1718L73.2546 37.6442Z" fill="black"/>
<path d="M93.9111 34.9724H81.0307V37.6442H93.9111V34.9724Z" fill="black"/>
<path d="M20.6565 37.6442V34.9724C20.6565 34.9724 47.0552 34.9724 47.135 34.9724C45.3405 36.6473 42.9479 37.6043 40.316 37.6442H20.6565Z" fill="black"/>
<path d="M65.1197 34.9724H52.2393V37.6442H65.1197V34.9724Z" fill="black"/>
<path d="M18.2638 35.0123V37.6442H0V34.9724C0 35.0123 18.2638 35.0123 18.2638 35.0123Z" fill="black"/>
</svg>
